<svg width="222" height="129" viewBox="0 0 222 129" fill="none" xmlns="http://www.w3.org/2000/svg">
<path fill-rule="evenodd" clip-rule="evenodd" d="M40.2491 0.477539C35.9748 11.0888 31.7006 21.6986 27.4264 32.3098C33.5935 48.0117 39.7607 63.7137 45.9278 79.4156L8.48681 79.3329C5.65853 86.3558 2.82877 93.3803 0.000488281 100.403C17.8241 100.408 35.6463 100.411 53.4699 100.414L65.1797 128.151H92.9667C75.3932 85.5921 57.8211 43.0363 40.2491 0.477539Z" fill="#FFA45A"/>
<path fill-rule="evenodd" clip-rule="evenodd" d="M30.223 72.9374C29.2255 71.9122 27.9615 71.3996 26.4357 71.3996C24.9098 71.3996 23.6459 71.9122 22.6483 72.9374C21.6493 73.9641 21.1521 75.2375 21.1521 76.7621C21.1521 78.2851 21.6493 79.5674 22.6483 80.6074C23.6459 81.6474 24.9098 82.1689 26.4357 82.1689C27.9615 82.1689 29.2255 81.6474 30.223 80.6074C31.222 79.5674 31.7207 78.2851 31.7207 76.7621C31.7207 75.2375 31.222 73.9641 30.223 72.9374ZM31.1924 69.7288V67.2662H36.5648V86.3008H31.1924V83.8397C29.7538 85.8916 27.8017 86.9168 25.3345 86.9168C22.4559 86.9168 20.1161 85.9345 18.3105 83.9712C16.5049 82.0079 15.6021 79.6043 15.6021 76.7621C15.6021 73.8917 16.4827 71.4867 18.2439 69.553C20.0065 67.6163 22.2813 66.6516 25.0711 66.6516C27.8298 66.6516 29.8707 67.6754 31.1924 69.7288Z" fill="#1F191A"/>
<path fill-rule="evenodd" clip-rule="evenodd" d="M41.6733 86.3007V67.266H47.0457V69.4199C48.5154 67.5748 50.4068 66.6515 52.7275 66.6515C55.575 66.6515 57.5863 67.8082 58.7614 70.1246C60.2 67.8082 62.2394 66.6515 64.8827 66.6515C67.1131 66.6515 68.8313 67.4285 70.0361 68.9797C70.594 69.7139 70.9522 70.4761 71.115 71.2665C71.2763 72.0568 71.3562 73.085 71.3562 74.3422V86.3007H65.9838V75.9273C65.9838 74.1398 65.6908 72.893 65.1032 72.1898C64.5749 71.5457 63.8408 71.2222 62.901 71.2222C61.5497 71.2222 60.567 71.7806 59.9499 72.893C59.4496 73.7129 59.201 74.9449 59.201 76.5861V86.3007H53.8286V75.9273C53.8286 74.1398 53.5355 72.893 52.948 72.1898C52.4196 71.5457 51.6841 71.2222 50.7457 71.2222C49.3945 71.2222 48.4118 71.7806 47.7946 72.893C47.2944 73.7129 47.0457 74.9449 47.0457 76.5861V86.3007H41.6733Z" fill="#1F191A"/>
<path fill-rule="evenodd" clip-rule="evenodd" d="M76.4404 67.2433H81.8631C81.8557 69.5656 81.8469 71.8908 81.838 74.2131L88.9731 67.2669H95.932L86.9913 75.6179L96.6365 86.3001H89.5014L82.4107 78.1677L81.838 78.6951V86.3001H76.4656C76.4582 79.9493 76.4478 73.5956 76.4404 67.2433Z" fill="#1F191A"/>
<path fill-rule="evenodd" clip-rule="evenodd" d="M105.136 80.5864C106.163 81.6411 107.44 82.1685 108.967 82.1685C110.493 82.1685 111.77 81.6411 112.799 80.5864C113.826 79.5301 114.341 78.2715 114.341 76.806C114.341 75.311 113.826 74.0347 112.799 72.9814C111.77 71.9266 110.493 71.3992 108.967 71.3992C107.44 71.3992 106.163 71.9266 105.136 72.9814C104.108 74.0347 103.593 75.311 103.593 76.806C103.593 78.2715 104.108 79.5301 105.136 80.5864ZM108.967 66.6512C112.167 66.6512 114.736 67.545 116.675 69.3325C118.817 71.2662 119.89 73.7584 119.89 76.806C119.89 79.8226 118.817 82.3015 116.675 84.2352C114.736 86.0227 112.167 86.9165 108.967 86.9165C105.766 86.9165 103.197 86.0227 101.259 84.2352C99.1165 82.3015 98.0435 79.8226 98.0435 76.806C98.0435 73.7584 99.1165 71.2662 101.259 69.3325C103.197 67.545 105.766 66.6512 108.967 66.6512Z" fill="#1F191A"/>
<path fill-rule="evenodd" clip-rule="evenodd" d="M124.029 86.3007V67.266H129.401V70.1246C130.046 68.8925 130.84 68.0121 131.78 67.4861C132.662 66.9292 133.717 66.6515 134.951 66.6515C135.654 66.6515 136.419 66.7992 137.241 67.0902L136.536 72.1026C135.86 71.6329 135.024 71.3994 134.026 71.3994C132.469 71.3994 131.279 71.9121 130.459 72.9373C129.753 73.8163 129.401 75.2226 129.401 77.1579V86.3007H124.029Z" fill="#1F191A"/>
<path fill-rule="evenodd" clip-rule="evenodd" d="M153.535 72.9374C152.537 71.9122 151.275 71.3996 149.748 71.3996C148.222 71.3996 146.958 71.9122 145.96 72.9374C144.961 73.9641 144.464 75.2375 144.464 76.7621C144.464 78.2851 144.961 79.5674 145.96 80.6074C146.958 81.6474 148.222 82.1689 149.748 82.1689C151.275 82.1689 152.537 81.6474 153.535 80.6074C154.534 79.5674 155.033 78.2851 155.033 76.7621C155.033 75.2375 154.534 73.9641 153.535 72.9374ZM154.504 69.7288V67.2662H159.877V86.3008H154.504V83.8397C153.066 85.8916 151.114 86.9168 148.647 86.9168C145.769 86.9168 143.428 85.9345 141.622 83.9712C139.815 82.0079 138.914 79.6043 138.914 76.7621C138.914 73.8917 139.796 71.4867 141.556 69.553C143.319 67.6163 145.593 66.6516 148.383 66.6516C151.143 66.6516 153.184 67.6754 154.504 69.7288Z" fill="#57585B"/>
<path fill-rule="evenodd" clip-rule="evenodd" d="M164.986 67.2664H170.36V78.0372C170.36 79.5602 170.742 80.6726 171.504 81.3773C172.238 82.0214 173.148 82.3434 174.235 82.3434C175.321 82.3434 176.233 82.0214 176.965 81.3773C177.729 80.6726 178.111 79.5602 178.111 78.0372V67.2664H183.483V78.9161C183.483 81.4659 182.706 83.4144 181.151 84.7632C179.505 86.1976 177.201 86.917 174.235 86.917C171.269 86.917 168.964 86.1976 167.32 84.7632C165.763 83.4144 164.986 81.4659 164.986 78.9161V67.2664Z" fill="#57585B"/>
<path fill-rule="evenodd" clip-rule="evenodd" d="M197.665 71.8367H193.965V86.3007H188.592V71.8367H186.477V67.266H188.592V60.7601H193.965V67.266H197.665V71.8367Z" fill="#57585B"/>
<path fill-rule="evenodd" clip-rule="evenodd" d="M206.604 80.5864C207.631 81.6411 208.908 82.1685 210.436 82.1685C211.961 82.1685 213.239 81.6411 214.267 80.5864C215.294 79.5301 215.809 78.2715 215.809 76.806C215.809 75.311 215.294 74.0347 214.267 72.9814C213.239 71.9266 211.961 71.3992 210.436 71.3992C208.908 71.3992 207.631 71.9266 206.604 72.9814C205.577 74.0347 205.063 75.311 205.063 76.806C205.063 78.2715 205.577 79.5301 206.604 80.5864ZM210.436 66.6512C213.635 66.6512 216.205 67.545 218.143 69.3325C220.285 71.2662 221.358 73.7584 221.358 76.806C221.358 79.8226 220.285 82.3015 218.143 84.2352C216.205 86.0227 213.635 86.9165 210.436 86.9165C207.234 86.9165 204.665 86.0227 202.729 84.2352C200.585 82.3015 199.513 79.8226 199.513 76.806C199.513 73.7584 200.585 71.2662 202.729 69.3325C204.665 67.545 207.234 66.6512 210.436 66.6512Z" fill="#57585B"/>
<path fill-rule="evenodd" clip-rule="evenodd" d="M106.008 105.264V107.507H104.778V106.439H101.032V101.527H102.264V105.264H104.136V101.527H105.366V105.264H106.008Z" fill="#1F191A"/>
<path fill-rule="evenodd" clip-rule="evenodd" d="M108.898 102.649C108.578 102.649 108.315 102.74 108.11 102.925C107.909 103.11 107.779 103.339 107.721 103.609H110.074C110.018 103.339 109.886 103.11 109.684 102.925C109.481 102.74 109.219 102.649 108.898 102.649ZM111.091 104.944C111.027 105.131 110.928 105.314 110.797 105.5C110.665 105.685 110.504 105.85 110.316 105.996C110.126 106.141 109.913 106.261 109.673 106.354C109.435 106.445 109.176 106.493 108.898 106.493C108.562 106.493 108.247 106.428 107.951 106.295C107.656 106.163 107.394 105.984 107.171 105.757C106.946 105.528 106.767 105.264 106.635 104.959C106.503 104.656 106.437 104.333 106.437 103.981C106.437 103.634 106.503 103.308 106.635 103.006C106.767 102.702 106.946 102.438 107.171 102.209C107.394 101.983 107.656 101.802 107.951 101.671C108.247 101.539 108.562 101.473 108.898 101.473C109.219 101.473 109.521 101.533 109.806 101.655C110.092 101.774 110.342 101.946 110.557 102.167C110.77 102.387 110.94 102.653 111.064 102.963C111.19 103.272 111.251 103.612 111.251 103.981C111.251 104.039 111.248 104.095 111.241 104.148C111.233 104.203 111.227 104.253 111.22 104.303C111.212 104.361 111.205 104.414 111.199 104.464H107.774C107.832 104.707 107.952 104.908 108.137 105.073C108.324 105.236 108.578 105.318 108.898 105.318C109.062 105.318 109.2 105.301 109.309 105.265C109.422 105.23 109.515 105.187 109.593 105.137C109.679 105.08 109.75 105.015 109.806 104.944H111.091Z" fill="#1F191A"/>
<path fill-rule="evenodd" clip-rule="evenodd" d="M116.601 101.526V106.438H115.371V104.516H113.391V106.438H112.161V101.526H113.391V103.342H115.371V101.526H116.601Z" fill="#1F191A"/>
<path fill-rule="evenodd" clip-rule="evenodd" d="M117.35 101.526H121.47V102.702H120.026V106.438H118.796V102.702H117.35V101.526Z" fill="#1F191A"/>
<path fill-rule="evenodd" clip-rule="evenodd" d="M123.342 103.982C123.342 104.388 123.459 104.713 123.695 104.954C123.93 105.196 124.223 105.317 124.574 105.317C124.921 105.317 125.216 105.196 125.451 104.954C125.687 104.713 125.804 104.388 125.804 103.982C125.804 103.577 125.687 103.254 125.451 103.011C125.216 102.769 124.921 102.649 124.574 102.649C124.223 102.649 123.93 102.769 123.695 103.011C123.459 103.254 123.342 103.577 123.342 103.982ZM124.734 101.473C125.04 101.473 125.333 101.535 125.61 101.66C125.889 101.785 126.134 101.959 126.344 102.182C126.554 102.409 126.721 102.671 126.847 102.977C126.971 103.285 127.033 103.62 127.033 103.982C127.033 104.345 126.971 104.681 126.847 104.988C126.721 105.294 126.554 105.558 126.344 105.783C126.134 106.006 125.889 106.18 125.61 106.306C125.333 106.43 125.04 106.492 124.734 106.492C124.528 106.492 124.347 106.468 124.193 106.418C124.041 106.368 123.906 106.314 123.792 106.257C123.665 106.186 123.55 106.105 123.449 106.012V108.148H122.219V101.527H123.128L123.342 102.007C123.449 101.908 123.575 101.818 123.718 101.739C123.838 101.674 123.985 101.615 124.156 101.558C124.327 101.501 124.519 101.473 124.734 101.473Z" fill="#1F191A"/>
<path fill-rule="evenodd" clip-rule="evenodd" d="M105.473 112.206V117.12H104.242V113.382H102.263V117.12H101.033V112.206H105.473Z" fill="#1F191A"/>
<path fill-rule="evenodd" clip-rule="evenodd" d="M107.614 114.663C107.614 115.068 107.732 115.393 107.967 115.635C108.203 115.878 108.496 115.997 108.845 115.997C109.193 115.997 109.487 115.878 109.723 115.635C109.958 115.393 110.075 115.068 110.075 114.663C110.075 114.258 109.958 113.933 109.723 113.691C109.487 113.45 109.193 113.329 108.845 113.329C108.496 113.329 108.203 113.45 107.967 113.691C107.732 113.933 107.614 114.258 107.614 114.663ZM111.306 114.663C111.306 115.012 111.24 115.338 111.108 115.64C110.975 115.943 110.799 116.208 110.574 116.436C110.347 116.663 110.088 116.845 109.792 116.975C109.495 117.107 109.18 117.173 108.845 117.173C108.509 117.173 108.194 117.107 107.898 116.975C107.602 116.845 107.341 116.663 107.118 116.436C106.891 116.208 106.714 115.943 106.581 115.64C106.45 115.338 106.384 115.012 106.384 114.663C106.384 114.315 106.45 113.99 106.581 113.687C106.714 113.384 106.891 113.118 107.118 112.89C107.341 112.663 107.602 112.481 107.898 112.353C108.194 112.22 108.509 112.153 108.845 112.153C109.18 112.153 109.495 112.22 109.792 112.353C110.088 112.481 110.347 112.663 110.574 112.89C110.799 113.118 110.975 113.384 111.108 113.687C111.24 113.99 111.306 114.315 111.306 114.663Z" fill="#1F191A"/>
<path fill-rule="evenodd" clip-rule="evenodd" d="M113.714 115.145C113.697 115.294 113.671 115.418 113.626 115.517C113.585 115.618 113.542 115.699 113.497 115.764C113.449 115.842 113.395 115.901 113.338 115.944H115.103V113.383H113.927L113.714 115.145ZM116.975 115.944V118.188H115.746V117.12H112.857V118.188H111.627V115.944H112.001C112.086 115.901 112.168 115.842 112.247 115.764C112.31 115.699 112.373 115.618 112.429 115.517C112.485 115.418 112.521 115.294 112.535 115.145L112.857 112.207H116.335V115.944H116.975Z" fill="#1F191A"/>
<path fill-rule="evenodd" clip-rule="evenodd" d="M121.148 114.823C121.148 114.668 121.117 114.517 121.054 114.374C120.99 114.234 120.903 114.108 120.796 114C120.688 113.894 120.564 113.808 120.422 113.745C120.28 113.681 120.13 113.649 119.972 113.649C119.809 113.649 119.655 113.681 119.513 113.745C119.369 113.808 119.245 113.894 119.138 114C119.03 114.108 118.946 114.234 118.887 114.374C118.826 114.517 118.795 114.668 118.795 114.823C118.795 114.986 118.826 115.141 118.887 115.283C118.946 115.426 119.03 115.549 119.138 115.655C119.245 115.764 119.369 115.847 119.513 115.908C119.655 115.967 119.809 115.998 119.972 115.998C120.13 115.998 120.28 115.967 120.422 115.908C120.564 115.847 120.688 115.764 120.796 115.655C120.903 115.549 120.99 115.426 121.054 115.283C121.117 115.141 121.148 114.986 121.148 114.823ZM120.186 112.474C120.493 112.474 120.78 112.528 121.048 112.638C121.314 112.751 121.548 112.906 121.742 113.11C121.939 113.314 122.096 113.559 122.208 113.847C122.322 114.135 122.38 114.46 122.38 114.823C122.38 115.159 122.319 115.469 122.198 115.752C122.076 116.036 121.909 116.284 121.694 116.494C121.481 116.705 121.228 116.871 120.934 116.992C120.642 117.113 120.321 117.174 119.972 117.174C119.622 117.174 119.297 117.107 118.998 116.976C118.699 116.844 118.438 116.652 118.218 116.398C117.996 116.147 117.823 115.835 117.698 115.464C117.574 115.095 117.51 114.668 117.51 114.182C117.51 113.492 117.586 112.898 117.735 112.405C117.886 111.909 118.128 111.502 118.464 111.18C118.798 110.861 119.233 110.62 119.767 110.461C120.303 110.3 120.96 110.205 121.736 110.176V111.352C121.173 111.366 120.707 111.412 120.342 111.491C119.973 111.57 119.679 111.684 119.452 111.833C119.227 111.982 119.064 112.164 118.961 112.378C118.856 112.591 118.783 112.836 118.742 113.116C118.841 112.994 118.962 112.885 119.104 112.794C119.227 112.715 119.377 112.643 119.556 112.576C119.732 112.508 119.945 112.474 120.186 112.474Z" fill="#1F191A"/>
<path fill-rule="evenodd" clip-rule="evenodd" d="M124.251 114.663C124.251 115.068 124.37 115.393 124.605 115.635C124.839 115.878 125.133 115.997 125.481 115.997C125.831 115.997 126.125 115.878 126.36 115.635C126.596 115.393 126.713 115.068 126.713 114.663C126.713 114.258 126.596 113.933 126.36 113.691C126.125 113.45 125.831 113.329 125.481 113.329C125.133 113.329 124.839 113.45 124.605 113.691C124.37 113.933 124.251 114.258 124.251 114.663ZM127.942 114.663C127.942 115.012 127.877 115.338 127.744 115.64C127.612 115.943 127.435 116.208 127.21 116.436C126.986 116.663 126.726 116.845 126.43 116.975C126.132 117.107 125.817 117.173 125.481 117.173C125.145 117.173 124.832 117.107 124.534 116.975C124.24 116.845 123.978 116.663 123.754 116.436C123.529 116.208 123.352 115.943 123.218 115.64C123.088 115.338 123.021 115.012 123.021 114.663C123.021 114.315 123.088 113.99 123.218 113.687C123.352 113.384 123.529 113.118 123.754 112.89C123.978 112.663 124.24 112.481 124.534 112.353C124.832 112.22 125.145 112.153 125.481 112.153C125.817 112.153 126.132 112.22 126.43 112.353C126.726 112.481 126.986 112.663 127.21 112.89C127.435 113.118 127.612 113.384 127.744 113.687C127.877 113.99 127.942 114.315 127.942 114.663Z" fill="#1F191A"/>
<path fill-rule="evenodd" clip-rule="evenodd" d="M129.976 114.663C129.976 115.068 130.095 115.393 130.329 115.635C130.564 115.878 130.858 115.997 131.208 115.997C131.557 115.997 131.85 115.878 132.085 115.635C132.321 115.393 132.438 115.068 132.438 114.663C132.438 114.258 132.321 113.933 132.085 113.691C131.85 113.45 131.557 113.329 131.208 113.329C130.858 113.329 130.564 113.45 130.329 113.691C130.095 113.933 129.976 114.258 129.976 114.663ZM131.368 112.153C131.674 112.153 131.967 112.217 132.245 112.341C132.523 112.465 132.769 112.639 132.978 112.862C133.188 113.088 133.357 113.353 133.481 113.659C133.605 113.964 133.667 114.3 133.667 114.663C133.667 115.027 133.605 115.362 133.481 115.668C133.357 115.974 133.188 116.238 132.978 116.464C132.769 116.687 132.523 116.861 132.245 116.987C131.967 117.11 131.674 117.173 131.368 117.173C131.162 117.173 130.981 117.149 130.827 117.098C130.675 117.049 130.542 116.994 130.426 116.938C130.299 116.867 130.184 116.786 130.083 116.693V118.829H128.853V112.207H129.762L129.976 112.687C130.083 112.588 130.209 112.499 130.352 112.419C130.472 112.356 130.619 112.295 130.79 112.239C130.961 112.181 131.153 112.153 131.368 112.153Z" fill="#1F191A"/>
<path fill-rule="evenodd" clip-rule="evenodd" d="M136.236 116.212C136.559 116.212 136.818 116.119 137.011 115.93C137.208 115.741 137.307 115.497 137.307 115.198V114.983C136.943 114.983 136.65 115 136.43 115.032C136.206 115.063 136.035 115.109 135.91 115.171C135.785 115.232 135.702 115.304 135.659 115.39C135.616 115.475 135.595 115.571 135.595 115.679C135.595 115.812 135.654 115.936 135.776 116.047C135.897 116.156 136.051 116.212 136.236 116.212ZM136.612 112.153C136.889 112.153 137.146 112.2 137.381 112.298C137.618 112.394 137.82 112.528 137.993 112.698C138.163 112.868 138.298 113.072 138.394 113.307C138.489 113.542 138.537 113.797 138.537 114.076V117.12H137.627L137.414 116.639C137.3 116.738 137.176 116.829 137.04 116.907C136.918 116.978 136.77 117.04 136.602 117.093C136.43 117.146 136.236 117.173 136.023 117.173C135.487 117.173 135.079 117.043 134.791 116.783C134.507 116.524 134.364 116.19 134.364 115.784C134.364 115.543 134.413 115.32 134.509 115.118C134.604 114.914 134.768 114.74 134.996 114.593C135.224 114.449 135.526 114.335 135.899 114.252C136.273 114.171 136.744 114.13 137.307 114.13C137.307 113.859 137.233 113.649 137.087 113.499C136.942 113.35 136.748 113.274 136.505 113.274C136.34 113.274 136.209 113.302 136.113 113.36C136.018 113.416 135.941 113.478 135.884 113.542C135.82 113.62 135.776 113.71 135.755 113.809H134.525C134.553 113.581 134.62 113.367 134.723 113.166C134.826 112.968 134.968 112.794 135.145 112.645C135.324 112.494 135.536 112.375 135.782 112.287C136.027 112.197 136.304 112.153 136.612 112.153Z" fill="#1F191A"/>
<path fill-rule="evenodd" clip-rule="evenodd" d="M102.692 126.893C103.013 126.893 103.272 126.799 103.467 126.61C103.664 126.421 103.762 126.178 103.762 125.878V125.663C103.398 125.663 103.106 125.681 102.884 125.712C102.662 125.745 102.489 125.79 102.366 125.851C102.24 125.912 102.158 125.985 102.113 126.07C102.072 126.157 102.049 126.251 102.049 126.359C102.049 126.494 102.11 126.616 102.23 126.727C102.353 126.838 102.507 126.893 102.692 126.893ZM103.066 122.834C103.344 122.834 103.6 122.882 103.836 122.978C104.073 123.074 104.275 123.208 104.447 123.378C104.617 123.549 104.752 123.752 104.848 123.987C104.944 124.222 104.992 124.479 104.992 124.756V127.8H104.082L103.868 127.319C103.754 127.418 103.63 127.509 103.494 127.588C103.373 127.659 103.226 127.721 103.056 127.774C102.884 127.828 102.692 127.853 102.477 127.853C101.943 127.853 101.533 127.723 101.247 127.464C100.962 127.204 100.82 126.872 100.82 126.466C100.82 126.223 100.867 126 100.963 125.799C101.059 125.594 101.222 125.421 101.45 125.275C101.678 125.13 101.981 125.015 102.354 124.932C102.729 124.851 103.198 124.81 103.762 124.81C103.762 124.539 103.688 124.329 103.541 124.179C103.396 124.031 103.202 123.956 102.96 123.956C102.795 123.956 102.665 123.984 102.569 124.04C102.473 124.096 102.396 124.158 102.34 124.222C102.274 124.301 102.23 124.392 102.211 124.49H100.979C101.009 124.262 101.074 124.047 101.178 123.848C101.281 123.65 101.422 123.476 101.6 123.325C101.779 123.176 101.99 123.056 102.236 122.967C102.483 122.877 102.758 122.834 103.066 122.834Z" fill="#1F191A"/>
<path fill-rule="evenodd" clip-rule="evenodd" d="M108.415 126.839C108.579 126.839 108.71 126.79 108.806 126.694C108.902 126.598 108.951 126.468 108.951 126.306C108.951 126.14 108.902 126.01 108.806 125.916C108.71 125.82 108.579 125.77 108.415 125.77H107.345V126.839H108.415ZM107.345 123.849V124.917H108.255C108.418 124.917 108.55 124.868 108.646 124.772C108.742 124.676 108.79 124.546 108.79 124.382C108.79 124.22 108.742 124.09 108.646 123.992C108.55 123.898 108.418 123.849 108.255 123.849H107.345ZM109.487 125.236C109.615 125.309 109.728 125.397 109.829 125.505C109.914 125.604 109.994 125.727 110.07 125.873C110.144 126.018 110.181 126.197 110.181 126.412C110.181 126.597 110.144 126.773 110.07 126.94C109.994 127.108 109.889 127.256 109.753 127.383C109.618 127.511 109.456 127.613 109.266 127.687C109.078 127.764 108.872 127.799 108.65 127.799H106.115V122.887H108.491C108.726 122.887 108.939 122.921 109.127 122.989C109.316 123.056 109.476 123.152 109.61 123.272C109.741 123.393 109.842 123.536 109.914 123.698C109.985 123.862 110.021 124.038 110.021 124.223C110.021 124.402 109.991 124.551 109.935 124.676C109.877 124.801 109.818 124.905 109.753 124.991C109.675 125.09 109.586 125.173 109.487 125.236Z" fill="#1F191A"/>
<path fill-rule="evenodd" clip-rule="evenodd" d="M110.662 122.888H114.784V124.062H113.338V127.8H112.108V124.062H110.662V122.888Z" fill="#1F191A"/>
<path fill-rule="evenodd" clip-rule="evenodd" d="M116.388 125.343C116.388 125.749 116.506 126.074 116.741 126.315C116.975 126.557 117.27 126.679 117.617 126.679C117.967 126.679 118.261 126.557 118.497 126.315C118.732 126.074 118.849 125.749 118.849 125.343C118.849 124.938 118.732 124.613 118.497 124.373C118.261 124.13 117.967 124.009 117.617 124.009C117.27 124.009 116.975 124.13 116.741 124.373C116.506 124.613 116.388 124.938 116.388 125.343ZM120.079 125.343C120.079 125.693 120.014 126.018 119.88 126.321C119.749 126.624 119.571 126.89 119.346 127.117C119.121 127.345 118.862 127.525 118.566 127.655C118.269 127.787 117.953 127.853 117.617 127.853C117.282 127.853 116.968 127.787 116.67 127.655C116.376 127.525 116.114 127.345 115.89 127.117C115.665 126.89 115.488 126.624 115.355 126.321C115.224 126.018 115.158 125.693 115.158 125.343C115.158 124.996 115.224 124.669 115.355 124.368C115.488 124.064 115.665 123.798 115.89 123.57C116.114 123.343 116.376 123.163 116.67 123.033C116.968 122.901 117.282 122.835 117.617 122.835C117.953 122.835 118.269 122.901 118.566 123.033C118.862 123.163 119.121 123.343 119.346 123.57C119.571 123.798 119.749 124.064 119.88 124.368C120.014 124.669 120.079 124.996 120.079 125.343Z" fill="#1F191A"/>
<path fill-rule="evenodd" clip-rule="evenodd" d="M123.824 125.29C123.952 125.37 124.066 125.461 124.165 125.568C124.253 125.661 124.333 125.773 124.407 125.904C124.481 126.037 124.519 126.187 124.519 126.359C124.519 126.557 124.475 126.748 124.392 126.93C124.305 127.111 124.182 127.271 124.022 127.407C123.861 127.541 123.665 127.649 123.433 127.73C123.201 127.813 122.939 127.853 122.647 127.853C122.025 127.853 121.555 127.708 121.234 127.416C120.914 127.125 120.724 126.736 120.667 126.252H121.79C121.805 126.367 121.843 126.466 121.908 126.551C121.966 126.63 122.048 126.696 122.154 126.754C122.261 126.81 122.407 126.839 122.594 126.839C122.836 126.839 123.021 126.785 123.15 126.674C123.277 126.563 123.343 126.441 123.343 126.305C123.343 126.17 123.285 126.057 123.171 125.963C123.057 125.872 122.866 125.825 122.594 125.825H122.113V124.863H122.594C122.807 124.863 122.968 124.817 123.075 124.726C123.181 124.632 123.236 124.519 123.236 124.383C123.236 124.219 123.181 124.09 123.075 123.993C122.968 123.898 122.807 123.848 122.594 123.848C122.429 123.848 122.299 123.878 122.202 123.934C122.107 123.991 122.03 124.05 121.972 124.115C121.908 124.194 121.867 124.282 121.843 124.383H120.72C120.778 123.928 120.964 123.554 121.282 123.266C121.601 122.978 122.055 122.835 122.647 122.835C122.903 122.835 123.138 122.877 123.353 122.963C123.566 123.047 123.753 123.16 123.909 123.298C124.066 123.437 124.189 123.597 124.279 123.78C124.367 123.962 124.411 124.145 124.411 124.33C124.411 124.508 124.382 124.655 124.322 124.771C124.26 124.889 124.191 124.988 124.112 125.067C124.028 125.151 123.93 125.226 123.824 125.29Z" fill="#1F191A"/>
<path fill-rule="evenodd" clip-rule="evenodd" d="M127.087 126.893C127.408 126.893 127.667 126.799 127.863 126.61C128.06 126.421 128.157 126.178 128.157 125.878V125.663C127.795 125.663 127.502 125.681 127.28 125.712C127.058 125.745 126.885 125.79 126.762 125.851C126.636 125.912 126.553 125.985 126.509 126.07C126.467 126.157 126.445 126.251 126.445 126.359C126.445 126.494 126.506 126.616 126.627 126.727C126.748 126.838 126.902 126.893 127.087 126.893ZM127.462 122.834C127.74 122.834 127.996 122.882 128.231 122.978C128.468 123.074 128.671 123.208 128.844 123.378C129.014 123.549 129.149 123.752 129.244 123.987C129.34 124.222 129.389 124.479 129.389 124.756V127.8H128.477L128.265 127.319C128.15 127.418 128.026 127.509 127.891 127.588C127.768 127.659 127.622 127.721 127.451 127.774C127.28 127.828 127.087 127.853 126.873 127.853C126.338 127.853 125.928 127.723 125.643 127.464C125.357 127.204 125.215 126.872 125.215 126.466C125.215 126.223 125.264 126 125.359 125.799C125.455 125.594 125.618 125.421 125.846 125.275C126.073 125.13 126.377 125.015 126.75 124.932C127.124 124.851 127.595 124.81 128.157 124.81C128.157 124.539 128.085 124.329 127.937 124.179C127.792 124.031 127.598 123.956 127.357 123.956C127.191 123.956 127.061 123.984 126.964 124.04C126.868 124.096 126.791 124.158 126.735 124.222C126.67 124.301 126.627 124.392 126.606 124.49H125.375C125.405 124.262 125.47 124.047 125.575 123.848C125.677 123.65 125.817 123.476 125.997 123.325C126.174 123.176 126.386 123.056 126.633 122.967C126.879 122.877 127.155 122.834 127.462 122.834Z" fill="#1F191A"/>
<path fill-rule="evenodd" clip-rule="evenodd" d="M134.952 122.888V127.8H133.721V124.062H131.742V127.8H130.512V122.888H134.952Z" fill="#1F191A"/>
<path fill-rule="evenodd" clip-rule="evenodd" d="M140.303 122.888V127.8H139.072V126.197C138.95 126.262 138.823 126.315 138.687 126.359C138.564 126.402 138.428 126.438 138.276 126.472C138.12 126.503 137.959 126.519 137.789 126.519C137.531 126.519 137.296 126.475 137.081 126.384C136.868 126.297 136.683 126.17 136.525 126.005C136.368 125.842 136.245 125.644 136.155 125.412C136.066 125.183 136.021 124.928 136.021 124.649V122.888H137.253V124.491C137.253 124.761 137.327 124.971 137.478 125.12C137.627 125.269 137.837 125.343 138.11 125.343C138.243 125.343 138.37 125.328 138.487 125.296C138.607 125.263 138.708 125.226 138.792 125.183C138.893 125.141 138.986 125.087 139.072 125.024V122.888H140.303Z" fill="#1F191A"/>
<path fill-rule="evenodd" clip-rule="evenodd" d="M143.137 126.893C143.46 126.893 143.719 126.799 143.913 126.61C144.11 126.421 144.207 126.178 144.207 125.878V125.663C143.845 125.663 143.552 125.681 143.331 125.712C143.108 125.745 142.936 125.79 142.812 125.851C142.686 125.912 142.603 125.985 142.56 126.07C142.517 126.157 142.495 126.251 142.495 126.359C142.495 126.494 142.556 126.616 142.677 126.727C142.798 126.838 142.952 126.893 143.137 126.893ZM143.513 122.834C143.79 122.834 144.048 122.882 144.283 122.978C144.518 123.074 144.721 123.208 144.894 123.378C145.064 123.549 145.199 123.752 145.294 123.987C145.39 124.222 145.439 124.479 145.439 124.756V127.8H144.529L144.315 127.319C144.201 127.418 144.077 127.509 143.941 127.588C143.818 127.659 143.672 127.721 143.501 127.774C143.331 127.828 143.137 127.853 142.924 127.853C142.388 127.853 141.978 127.723 141.693 127.464C141.409 127.204 141.265 126.872 141.265 126.466C141.265 126.223 141.314 126 141.409 125.799C141.505 125.594 141.668 125.421 141.897 125.275C142.125 125.13 142.427 125.015 142.8 124.932C143.174 124.851 143.645 124.81 144.207 124.81C144.207 124.539 144.135 124.329 143.988 124.179C143.843 124.031 143.648 123.956 143.407 123.956C143.241 123.956 143.111 123.984 143.014 124.04C142.92 124.096 142.843 124.158 142.785 124.222C142.72 124.301 142.677 124.392 142.656 124.49H141.426C141.455 124.262 141.52 124.047 141.625 123.848C141.727 123.65 141.867 123.476 142.047 123.325C142.226 123.176 142.437 123.056 142.683 122.967C142.929 122.877 143.205 122.834 143.513 122.834Z" fill="#1F191A"/>
<path fill-rule="evenodd" clip-rule="evenodd" d="M151.055 125.985C150.999 126.227 150.901 126.459 150.766 126.685C150.63 126.908 150.464 127.108 150.265 127.284C150.065 127.456 149.837 127.595 149.579 127.699C149.322 127.801 149.048 127.854 148.755 127.854C148.42 127.854 148.104 127.787 147.809 127.656C147.512 127.524 147.251 127.346 147.028 127.118C146.803 126.889 146.624 126.625 146.492 126.322C146.36 126.018 146.294 125.694 146.294 125.343C146.294 124.995 146.36 124.669 146.492 124.368C146.624 124.063 146.803 123.799 147.028 123.57C147.251 123.344 147.512 123.164 147.809 123.032C148.104 122.901 148.42 122.834 148.755 122.834C149.048 122.834 149.322 122.886 149.579 122.989C149.837 123.093 150.065 123.231 150.265 123.406C150.464 123.58 150.63 123.78 150.766 124.003C150.901 124.229 150.999 124.462 151.055 124.703H149.825C149.767 124.574 149.69 124.462 149.591 124.36C149.504 124.276 149.393 124.196 149.258 124.121C149.122 124.047 148.955 124.009 148.755 124.009C148.406 124.009 148.114 124.13 147.879 124.372C147.642 124.613 147.524 124.938 147.524 125.343C147.524 125.75 147.642 126.075 147.879 126.316C148.114 126.558 148.406 126.679 148.755 126.679C148.955 126.679 149.122 126.643 149.258 126.572C149.393 126.502 149.504 126.422 149.591 126.337C149.69 126.238 149.767 126.121 149.825 125.985H151.055Z" fill="#1F191A"/>
<path fill-rule="evenodd" clip-rule="evenodd" d="M151.482 122.888H155.603V124.062H154.158V127.8H152.93V124.062H151.482V122.888Z" fill="#1F191A"/>
<path fill-rule="evenodd" clip-rule="evenodd" d="M158.439 124.009C158.118 124.009 157.856 124.1 157.653 124.285C157.449 124.471 157.318 124.7 157.262 124.97H159.617C159.559 124.7 159.429 124.471 159.225 124.285C159.023 124.1 158.76 124.009 158.439 124.009ZM160.632 126.306C160.568 126.492 160.469 126.675 160.338 126.861C160.206 127.046 160.046 127.211 159.857 127.358C159.667 127.502 159.454 127.622 159.214 127.715C158.976 127.807 158.717 127.854 158.439 127.854C158.103 127.854 157.789 127.788 157.492 127.656C157.196 127.525 156.935 127.346 156.712 127.117C156.487 126.889 156.309 126.625 156.176 126.321C156.044 126.018 155.979 125.694 155.979 125.343C155.979 124.995 156.044 124.669 156.176 124.368C156.309 124.063 156.487 123.797 156.712 123.57C156.935 123.344 157.196 123.164 157.492 123.032C157.789 122.901 158.103 122.834 158.439 122.834C158.76 122.834 159.063 122.895 159.347 123.016C159.635 123.136 159.883 123.307 160.098 123.529C160.311 123.749 160.481 124.015 160.605 124.325C160.731 124.634 160.793 124.973 160.793 125.343C160.793 125.4 160.789 125.455 160.782 125.51C160.774 125.564 160.768 125.614 160.761 125.663C160.753 125.722 160.746 125.775 160.74 125.824H157.315C157.372 126.068 157.493 126.269 157.678 126.433C157.865 126.597 158.118 126.68 158.439 126.68C158.603 126.68 158.741 126.662 158.85 126.625C158.963 126.591 159.056 126.548 159.136 126.498C159.22 126.44 159.291 126.377 159.347 126.306H160.632Z" fill="#1F191A"/>
<path fill-rule="evenodd" clip-rule="evenodd" d="M163.948 121.605C164.071 121.605 164.167 121.579 164.243 121.525C164.32 121.472 164.378 121.41 164.419 121.339C164.471 121.261 164.509 121.171 164.537 121.072H165.448C165.418 121.258 165.363 121.432 165.282 121.595C165.2 121.759 165.092 121.901 164.961 122.022C164.829 122.143 164.678 122.237 164.506 122.305C164.335 122.373 164.15 122.407 163.948 122.407C163.749 122.407 163.564 122.373 163.393 122.305C163.222 122.237 163.069 122.143 162.937 122.022C162.807 121.901 162.699 121.759 162.618 121.595C162.535 121.432 162.48 121.258 162.451 121.072H163.362C163.39 121.171 163.427 121.261 163.479 121.339C163.521 121.41 163.58 121.472 163.655 121.525C163.731 121.579 163.828 121.605 163.948 121.605ZM166.196 122.887V127.799H164.965V124.703L162.878 127.799H161.702V122.887H162.932V125.985L165.02 122.887H166.196Z" fill="#1F191A"/>
</svg>
